<svg xmlns="http://www.w3.org/2000/svg" viewBox="0 0 1000 276.37"><defs><style>.cls-1{fill:#fff;}</style></defs><g id="Layer_2" data-name="Layer 2"><g id="White_Primary" data-name="White Primary"><path class="cls-1" d="M329.83,121.65a66.15,66.15,0,0,1,25.08-24.86,69.5,69.5,0,0,1,34.7-8.94q21.58,0,38.39,10.71t24.4,30.36H425.77a36,36,0,0,0-14.58-16.11,42.88,42.88,0,0,0-21.58-5.31,46.78,46.78,0,0,0-23.91,6.1,42.2,42.2,0,0,0-16.43,17.48q-5.92,11.41-5.93,26.53t5.93,26.53a42.86,42.86,0,0,0,16.43,17.59,46.15,46.15,0,0,0,23.91,6.19,43,43,0,0,0,21.58-5.3,36,36,0,0,0,14.58-16.12H452.4q-7.57,19.65-24.4,30.26t-38.39,10.62a69.26,69.26,0,0,1-34.8-8.94,66.46,66.46,0,0,1-25-24.86q-9.22-15.93-9.23-36T329.83,121.65Z"/><path class="cls-1" d="M536.43,114.88a57.38,57.38,0,1,0,57.4,57.36A57.36,57.36,0,0,0,536.43,114.88Zm0,94.23a36.85,36.85,0,1,1,36.86-36.87A36.85,36.85,0,0,1,536.43,209.11Z"/><path class="cls-1" d="M643.58,123.15a49.08,49.08,0,0,0-18.27,19.55,50.39,50.39,0,0,0-3.44,7.93,56,56,0,0,1,26.89-30.17A39.8,39.8,0,0,0,643.58,123.15ZM621.34,191a55.09,55.09,0,0,0,4,9.74,50.32,50.32,0,0,0,18.27,20,46.92,46.92,0,0,0,23.12,7.12C645.74,225.68,628.33,211,621.34,191Z"/><path class="cls-1" d="M904.84,142.58A48.06,48.06,0,0,1,923.41,123q11.85-6.89,27.21-6.88,19.44,0,32.18,9.34t17.2,26.62H976.09a25.65,25.65,0,0,0-9.33-12.58Q960.34,135,950.62,135,937,135,929,144.74T920.88,172q0,17.49,8.07,27.31t21.67,9.83q19.26,0,25.47-17.1H1000q-4.66,16.51-17.5,26.24T950.62,228q-15.36,0-27.21-7a48.7,48.7,0,0,1-18.57-19.65q-6.71-12.68-6.7-29.38T904.84,142.58Z"/><path class="cls-1" d="M817.54,114.15a57.39,57.39,0,1,0,57.4,57.37A57.37,57.37,0,0,0,817.54,114.15Zm0,94.24a36.85,36.85,0,1,1,36.86-36.87A36.85,36.85,0,0,1,817.54,208.39Z"/><path class="cls-1" d="M212.31,226.45a26.19,26.19,0,0,1-.95-7.06v0l-88-51A43.92,43.92,0,1,1,121.16,135l97.09-49.89a37.71,37.71,0,0,1,12.49-49.46,138.18,138.18,0,1,0-3.87,208.51A27.61,27.61,0,0,1,212.31,226.45Zm9.58-135.86-96.83,49.76a22.4,22.4,0,0,1,.66,2.2,46.16,46.16,0,0,1,.82,20.07l85.77,49.69A27.4,27.4,0,0,1,227,194.5l14.59-90.92A37.49,37.49,0,0,1,221.89,90.59Zm49,9a36.35,36.35,0,0,1-9.65,4.1,37.63,37.63,0,0,1-13.15,1.11l-14,87.41a27.67,27.67,0,0,1,26.6,10,138.73,138.73,0,0,0,10.2-102.62Z"/><path class="cls-1" d="M706.26,80.77v46.61a52.45,52.45,0,0,0-34-12.5A51.84,51.84,0,0,0,649.71,120c-.33.13-.62.3-1,.43a56,56,0,0,0-26.89,30.17,63.76,63.76,0,0,0-3.28,20.93,65.5,65.5,0,0,0,2.62,19c0,.16.1.3.13.46,7,19.94,24.4,34.67,45.36,36.9h0a51.18,51.18,0,0,0,5.55.29,52.47,52.47,0,0,0,34-12.53V226.2h22.37V80.77Zm5,91.29c0,20.75-16.58,37.57-37,37.57s-37-16.82-37-37.57,16.58-37.57,37-37.57S711.21,151.31,711.21,172.06Z"/></g></g></svg>
